<svg width="1445" height="422" viewBox="0 0 1445 422" fill="none" xmlns="http://www.w3.org/2000/svg">
<path d="M99.1984 400.373C70.4452 400.373 48.7007 392.286 33.9647 376.112C19.2287 359.579 11.8607 336.037 11.8607 305.487V283.922H67.9293V309.8C67.9293 334.24 78.1726 346.461 98.6593 346.461C108.723 346.461 116.271 343.585 121.302 337.835C126.694 331.725 129.389 322.02 129.389 308.722C129.389 292.908 125.795 279.07 118.607 267.21C111.418 254.99 98.1201 240.433 78.7118 223.541C54.2716 201.976 37.1994 182.568 27.4952 165.316C17.791 147.704 12.9389 127.937 12.9389 106.012C12.9389 76.1809 20.4866 53.1783 35.582 37.0047C50.6774 20.4716 72.6017 12.2051 101.355 12.2051C129.749 12.2051 151.134 20.4716 165.51 37.0047C180.246 53.1783 187.614 76.5403 187.614 107.09V122.725H131.546V103.317C131.546 90.3777 129.03 81.033 123.998 75.2823C118.966 69.1723 111.598 66.1173 101.894 66.1173C82.1262 66.1173 72.2423 78.1576 72.2423 102.238C72.2423 115.896 75.8364 128.655 83.0247 140.516C90.5724 152.377 104.05 166.753 123.459 183.646C148.258 205.211 165.331 224.799 174.675 242.41C184.02 260.021 188.693 280.688 188.693 304.409C188.693 335.319 180.965 359.04 165.51 375.573C150.415 392.106 128.311 400.373 99.1984 400.373ZM266.941 17.5963H347.27L408.73 394.981H349.427L338.644 320.044V321.122H271.254L260.472 394.981H205.481L266.941 17.5963ZM331.636 269.905L305.219 83.3692H304.14L278.263 269.905H331.636ZM437.501 17.5963H496.805V341.069H594.386V394.981H437.501V17.5963ZM622.824 17.5963H784.561V71.5085H682.128V171.246H763.535V225.158H682.128V341.069H784.561V394.981H622.824V17.5963ZM896.825 400.373C868.071 400.373 846.327 392.286 831.591 376.112C816.855 359.579 809.487 336.037 809.487 305.487V283.922H865.555V309.8C865.555 334.24 875.799 346.461 896.285 346.461C906.349 346.461 913.897 343.585 918.929 337.835C924.32 331.725 927.015 322.02 927.015 308.722C927.015 292.908 923.421 279.07 916.233 267.21C909.045 254.99 895.746 240.433 876.338 223.541C851.898 201.976 834.826 182.568 825.121 165.316C815.417 147.704 810.565 127.937 810.565 106.012C810.565 76.1809 818.113 53.1783 833.208 37.0047C848.304 20.4716 870.228 12.2051 898.981 12.2051C927.375 12.2051 948.76 20.4716 963.136 37.0047C977.872 53.1783 985.24 76.5403 985.24 107.09V122.725H929.172V103.317C929.172 90.3777 926.656 81.033 921.624 75.2823C916.592 69.1723 909.224 66.1173 899.52 66.1173C879.752 66.1173 869.868 78.1576 869.868 102.238C869.868 115.896 873.463 128.655 880.651 140.516C888.199 152.377 901.677 166.753 921.085 183.646C945.885 205.211 962.957 224.799 972.302 242.41C981.646 260.021 986.319 280.688 986.319 304.409C986.319 335.319 978.591 359.04 963.136 375.573C948.041 392.106 925.937 400.373 896.825 400.373Z" fill="black"/>
<path d="M1444.44 314.519C1444.44 343.038 1436.41 364.784 1420.37 379.756C1403.97 394.729 1380.62 402.215 1350.32 402.215L1064.78 402.215L1064.78 343.395L1354.6 343.395C1367.43 343.395 1376.7 340.899 1382.41 335.908C1388.11 330.561 1390.96 323.075 1390.96 313.45C1390.96 303.825 1388.11 296.517 1382.41 291.526C1376.7 286.179 1367.43 283.505 1354.6 283.505L1064.78 283.505L1064.78 226.824L1350.32 226.824C1380.62 226.824 1403.97 234.31 1420.37 249.282C1436.41 264.255 1444.44 286 1444.44 314.519ZM1064.78 184.931L1064.78 98.3047C1064.78 69.0728 1072.62 47.1489 1088.31 32.5329C1103.99 17.917 1126.98 10.609 1157.29 10.609L1194.18 10.609C1224.48 10.609 1247.48 17.917 1263.16 32.5329C1278.85 47.1489 1286.69 69.0728 1286.69 98.3047L1286.69 126.111L1439.09 126.111L1439.09 184.931L1064.78 184.931ZM1233.22 98.3047C1233.22 88.6795 1230.54 81.5498 1225.2 76.9155C1219.85 71.9247 1210.76 69.4293 1197.92 69.4293L1153.54 69.4293C1140.71 69.4293 1131.62 71.9247 1126.27 76.9155C1120.92 81.5498 1118.25 88.6796 1118.25 98.3047L1118.25 126.111L1233.22 126.111L1233.22 98.3047Z" fill="url(#paint0_linear_7_79)"/>
<defs>
<linearGradient id="paint0_linear_7_79" x1="1661.33" y1="103.509" x2="1158.32" y2="-102.434" gradientUnits="userSpaceOnUse">
<stop stop-color="#B85C00"/>
<stop offset="0.624932" stop-color="#E8790A"/>
<stop offset="1" stop-color="#F98A28"/>
</linearGradient>
</defs>
</svg>
